<?xml version="1.0" encoding="UTF-8"?>
<svg xmlns="http://www.w3.org/2000/svg" xmlns:xlink="http://www.w3.org/1999/xlink" viewBox="0 0 600 600" version="1.1">
<g id="surface1">
<rect x="0" y="0" width="600" height="600" style="fill:rgb(61.671448%,84.638977%,81.721497%);fill-opacity:1;stroke:none;"/>
<path style=" stroke:none;fill-rule:nonzero;fill:rgb(44.206238%,61.735535%,60.980225%);fill-opacity:1;" d="M 184.558594 537.792969 C 184.558594 542.128906 153.628906 545.640625 115.476562 545.640625 C 77.324219 545.640625 46.394531 542.128906 46.394531 537.792969 C 46.394531 533.460938 77.324219 529.949219 115.476562 529.949219 C 153.628906 529.949219 184.558594 533.460938 184.558594 537.792969 "/>
<path style=" stroke:none;fill-rule:nonzero;fill:rgb(44.206238%,61.735535%,60.980225%);fill-opacity:1;" d="M 556.964844 538.261719 C 556.964844 542.335938 523.09375 545.640625 481.304688 545.640625 C 439.519531 545.640625 405.648438 542.335938 405.648438 538.261719 C 405.648438 534.1875 439.519531 530.886719 481.304688 530.886719 C 523.09375 530.886719 556.964844 534.1875 556.964844 538.261719 "/>
<path style=" stroke:none;fill-rule:nonzero;fill:rgb(99.008179%,85.456848%,60.580444%);fill-opacity:1;" d="M 73.507812 408.074219 C 73.507812 408.074219 36.152344 328.015625 125.921875 319.578125 C 125.921875 319.578125 205.445312 308.132812 189.78125 400.910156 L 73.507812 408.074219 "/>
<path style=" stroke:none;fill-rule:nonzero;fill:rgb(8.285522%,8.345032%,7.719421%);fill-opacity:1;" d="M 183.460938 343.375 C 194.007812 336.144531 190.640625 328.015625 190.640625 328.015625 C 189.238281 323.34375 181.949219 328.015625 181.949219 328.015625 C 186.394531 320.527344 180.144531 319.132812 180.144531 319.132812 C 177.734375 318.078125 162.066406 324.683594 162.0625 324.6875 C 144.59375 316.894531 125.921875 319.578125 125.921875 319.578125 C 48.394531 326.863281 65.679688 387.5625 71.835938 403.984375 C 77.558594 399.59375 81.71875 394.6875 84.757812 389.761719 C 84.066406 389.480469 83.382812 389.117188 82.734375 388.636719 C 79.71875 386.375 78.617188 382.742188 80.28125 380.523438 C 81.941406 378.304688 85.734375 378.339844 88.753906 380.597656 C 88.886719 380.699219 88.992188 380.8125 89.117188 380.914062 C 93.84375 368.492188 92.585938 357.9375 92.585938 357.9375 C 120.699219 362.355469 176.929688 347.894531 176.929688 347.894531 C 178.796875 350.5625 185.792969 358.53125 190.640625 363.59375 C 189.261719 355.480469 186.738281 348.824219 183.460938 343.375 "/>
<path style=" stroke:none;fill-rule:nonzero;fill:rgb(98.683167%,97.042847%,85.784912%);fill-opacity:1;" d="M 252.171875 393.28125 C 245.875 384.445312 225.128906 385.648438 225.128906 385.648438 C 219.578125 402.628906 198.902344 405.539062 191.355469 406.035156 C 190.945312 403.023438 190.484375 400.773438 189.964844 399.785156 C 189.964844 399.785156 107.546875 398.371094 73.507812 408.074219 C 73.507812 408.074219 39.464844 451.519531 37.054688 463.871094 C 37.054688 463.871094 54.828125 479.835938 63.867188 480.4375 L 73.507812 469.894531 C 73.507812 469.894531 74.859375 471.953125 78.058594 474.785156 C 77.472656 491.105469 77.691406 540.1875 101.820312 537.671875 C 101.820312 537.671875 127.335938 542.5 128.523438 491.25 C 131.035156 491.332031 133.648438 491.347656 136.371094 491.285156 C 137.566406 542.496094 163.070312 537.671875 163.070312 537.671875 C 191.988281 540.6875 186.566406 469.59375 186.566406 469.59375 L 186.398438 469.632812 C 190.429688 464.367188 193.261719 457.828125 194 449.703125 C 194 449.703125 193.960938 448.121094 193.875 445.523438 C 240.941406 442.335938 252.171875 393.28125 252.171875 393.28125 "/>
<path style=" stroke:none;fill-rule:nonzero;fill:rgb(99.008179%,85.456848%,60.580444%);fill-opacity:1;" d="M 240.390625 366.371094 C 239.269531 366.328125 238.238281 366.386719 237.277344 366.515625 C 236.695312 362.089844 234.894531 358.863281 232.757812 358.863281 C 230.152344 358.863281 228.039062 363.675781 228.039062 369.605469 C 228.039062 370.546875 228.097656 371.453125 228.199219 372.324219 C 224.875 377.761719 225.371094 385.035156 225.128906 385.648438 C 225.128906 385.648438 245.875 384.445312 252.171875 393.28125 C 258.328125 369.785156 240.390625 366.371094 240.390625 366.371094 "/>
<path style=" stroke:none;fill-rule:nonzero;fill:rgb(99.008179%,85.456848%,60.580444%);fill-opacity:1;" d="M 37.054688 490.980469 C 37.054688 490.980469 50.3125 498.511719 63.867188 480.4375 C 54.828125 479.835938 37.054688 463.871094 37.054688 463.871094 C 37.054688 463.871094 22.898438 478.933594 37.054688 490.980469 "/>
<path style=" stroke:none;fill-rule:nonzero;fill:rgb(94.888306%,37.249756%,32.183838%);fill-opacity:1;" d="M 133.351562 438.667969 L 146.003906 449.3125 L 158.65625 435.253906 C 158.65625 435.253906 153.445312 410.976562 147.683594 400.1875 C 143.960938 400.304688 140.125 400.445312 136.230469 400.617188 C 136.371094 409.046875 136.441406 431.835938 133.351562 438.667969 "/>
<path style=" stroke:none;fill-rule:nonzero;fill:rgb(8.285522%,8.345032%,7.719421%);fill-opacity:1;" d="M 159.660156 369.984375 C 159.660156 371.316406 158.578125 372.394531 157.25 372.394531 C 155.917969 372.394531 154.839844 371.316406 154.839844 369.984375 C 154.839844 368.652344 155.917969 367.574219 157.25 367.574219 C 158.578125 367.574219 159.660156 368.652344 159.660156 369.984375 "/>
<path style=" stroke:none;fill-rule:nonzero;fill:rgb(8.285522%,8.345032%,7.719421%);fill-opacity:1;" d="M 120.105469 376.074219 C 120.105469 377.402344 119.027344 378.484375 117.699219 378.484375 C 116.367188 378.484375 115.289062 377.402344 115.289062 376.074219 C 115.289062 374.742188 116.367188 373.664062 117.699219 373.664062 C 119.027344 373.664062 120.105469 374.742188 120.105469 376.074219 "/>
<path style="fill:none;stroke-width:10;stroke-linecap:butt;stroke-linejoin:miter;stroke:rgb(12.866211%,11.170959%,11.180115%);stroke-opacity:1;stroke-miterlimit:10;" d="M 1419.882812 2095.3125 C 1419.882812 2095.3125 1450 2091.289062 1460.039062 2085.273438 " transform="matrix(0.1,0,0,-0.1,0,600)"/>
<path style=" stroke:none;fill-rule:nonzero;fill:rgb(99.008179%,85.456848%,60.580444%);fill-opacity:1;" d="M 414.085938 404.957031 C 414.085938 404.957031 408.800781 318.089844 493.78125 336.597656 C 493.78125 336.597656 567.808594 343.394531 540.234375 415.15625 L 414.085938 404.957031 "/>
<path style=" stroke:none;fill-rule:nonzero;fill:rgb(8.285522%,8.345032%,7.719421%);fill-opacity:1;" d="M 493.78125 336.597656 C 446.683594 326.339844 427.320312 348.445312 419.40625 370.195312 C 427.09375 363.929688 440.609375 352.859375 443.546875 350.191406 C 443.546875 350.191406 460.921875 364.167969 527.394531 369.453125 C 527.394531 369.453125 527.777344 375.691406 530.757812 383.105469 C 533.613281 381.792969 536.636719 382.132812 537.964844 384.09375 C 539.4375 386.269531 538.292969 389.632812 535.425781 391.820312 C 537.753906 395.15625 540.738281 398.351562 544.589844 400.964844 C 557.742188 342.480469 493.78125 336.597656 493.78125 336.597656 "/>
<path style=" stroke:none;fill-rule:nonzero;fill:rgb(98.683167%,97.042847%,85.784912%);fill-opacity:1;" d="M 419.40625 405.386719 L 404.171875 374.582031 C 404.171875 374.582031 385.761719 367 372.730469 382.296875 C 372.730469 382.296875 384.910156 428.46875 402.757812 446.3125 C 402.757812 446.3125 402.695312 527.339844 412.195312 533.675781 C 420.25 539.042969 437.25 539.292969 445.058594 533.675781 C 451.335938 529.15625 452.335938 528.875 448.457031 497.113281 C 448.457031 497.113281 469.984375 503.535156 494.910156 499.757812 C 494.910156 499.757812 502.949219 528.4375 509.265625 531.105469 C 521.335938 536.210938 532.835938 530.210938 537.589844 524.6875 C 540.71875 521.054688 539.0625 513.648438 530.386719 492.304688 C 530.269531 492.019531 530.15625 491.734375 530.035156 491.449219 C 530.035156 491.449219 533.058594 486.160156 533.058594 481.253906 L 544.011719 490.316406 C 544.011719 490.316406 563.273438 483.894531 564.785156 467.65625 C 564.785156 467.65625 545.902344 434.796875 541.746094 432.152344 C 541.746094 432.152344 542.316406 420.023438 540.234375 415.15625 L 419.40625 405.386719 "/>
<path style=" stroke:none;fill-rule:nonzero;fill:rgb(99.008179%,85.456848%,60.580444%);fill-opacity:1;" d="M 393.289062 352.53125 C 393.195312 351.71875 393.007812 350.867188 392.703125 350.011719 C 391.425781 346.371094 388.6875 344.019531 386.585938 344.757812 C 385.054688 345.296875 384.289062 347.339844 384.488281 349.824219 C 381.867188 349.945312 380.09375 350.757812 380.09375 350.757812 C 361.773438 357.179688 372.730469 382.296875 372.730469 382.296875 C 385.761719 367 404.171875 374.582031 404.171875 374.582031 C 401.761719 361.992188 397.535156 355.632812 393.289062 352.53125 "/>
<path style=" stroke:none;fill-rule:nonzero;fill:rgb(99.008179%,85.456848%,60.580444%);fill-opacity:1;" d="M 564.785156 467.65625 C 563.273438 483.894531 544.011719 490.316406 544.011719 490.316406 C 544.011719 490.316406 556.964844 506 569 494.75 C 569 494.75 580.5 486 564.785156 467.65625 "/>
<path style=" stroke:none;fill-rule:nonzero;fill:rgb(94.888306%,37.249756%,32.183838%);fill-opacity:1;" d="M 451.21875 407.960938 C 447.65625 414.808594 439.527344 433.507812 440.902344 444.804688 L 451.289062 457.269531 L 459.597656 447.824219 C 459.597656 447.824219 457.617188 419.0625 460.035156 408.671875 L 451.21875 407.960938 "/>
<path style=" stroke:none;fill-rule:nonzero;fill:rgb(12.866211%,11.170959%,11.180115%);fill-opacity:1;" d="M 441.703125 372.996094 L 439.792969 372.40625 C 440.019531 371.667969 442.132812 365.175781 445.722656 364.972656 C 447.8125 364.878906 449.609375 366.6875 451.308594 370.5625 L 449.476562 371.367188 C 448.226562 368.511719 446.875 366.910156 445.835938 366.96875 C 444.25 367.058594 442.464844 370.550781 441.703125 372.996094 "/>
<path style=" stroke:none;fill-rule:nonzero;fill:rgb(12.866211%,11.170959%,11.180115%);fill-opacity:1;" d="M 490.660156 379.730469 L 488.753906 379.140625 C 488.980469 378.402344 491.09375 371.910156 494.683594 371.707031 C 496.757812 371.589844 498.566406 373.421875 500.265625 377.296875 L 498.433594 378.101562 C 497.183594 375.246094 495.824219 373.664062 494.796875 373.703125 C 493.210938 373.792969 491.421875 377.28125 490.660156 379.730469 "/>
<path style=" stroke:none;fill-rule:nonzero;fill:rgb(98.683167%,97.042847%,85.784912%);fill-opacity:1;" d="M 453.179688 384.277344 C 453.179688 384.277344 468.472656 387.679688 471.308594 385.695312 C 471.308594 385.695312 469.726562 402.125 460.035156 399.292969 C 460.035156 399.292969 450.628906 398.160156 453.179688 384.277344 "/>
<path style=" stroke:none;fill-rule:nonzero;fill:rgb(96.855164%,82.458496%,29.022217%);fill-opacity:1;" d="M 371.5625 103.199219 C 371.535156 103.199219 371.511719 103.199219 371.484375 103.199219 C 371.457031 103.199219 371.433594 103.199219 371.40625 103.199219 C 345 103.285156 323.628906 124.710938 323.628906 151.132812 C 323.628906 159.863281 325.960938 168.042969 330.03125 175.09375 C 330.03125 175.09375 346.023438 200.566406 346.257812 210.386719 C 347.042969 223.585938 350.65625 229.242188 350.65625 229.242188 L 392.308594 229.242188 C 392.308594 229.242188 395.921875 223.585938 396.707031 210.386719 C 396.941406 200.566406 412.929688 175.09375 412.929688 175.09375 C 417.003906 168.042969 419.34375 159.863281 419.34375 151.132812 C 419.34375 124.710938 397.960938 103.285156 371.5625 103.199219 "/>
<path style=" stroke:none;fill-rule:nonzero;fill:rgb(8.285522%,8.345032%,7.719421%);fill-opacity:1;" d="M 364.546875 222.207031 C 364.769531 214.144531 365.511719 207.179688 366.230469 200.449219 C 366.863281 194.566406 367.460938 189.011719 367.621094 183.332031 C 367.664062 181.851562 367.746094 180.1875 367.839844 178.40625 C 368.132812 172.609375 368.492188 165.445312 367.648438 159.121094 C 369.710938 159.230469 371.761719 159.261719 373.671875 159.261719 C 374.734375 159.261719 375.875 159.285156 377.046875 159.304688 C 377.9375 159.320312 378.84375 159.339844 379.75 159.347656 C 378.839844 171.367188 379.910156 184.164062 380.957031 196.625 C 381.671875 205.164062 382.402344 213.984375 382.445312 222.207031 Z M 351.234375 150.878906 C 350.769531 148.746094 351.304688 147.324219 352.832031 146.648438 C 353.445312 146.378906 354.195312 146.25 355.023438 146.25 C 357.8125 146.25 361.433594 147.742188 363.328125 150.382812 C 364.425781 152.332031 365.164062 154.703125 365.644531 157.300781 C 359.375 156.785156 352.195312 155.28125 351.234375 150.878906 Z M 382.539062 150.585938 C 382.917969 147.117188 385.601562 145.46875 387.933594 145.402344 C 387.984375 145.402344 388.03125 145.398438 388.085938 145.398438 C 390.453125 145.398438 393.195312 146.992188 393.945312 151.503906 C 394.222656 152.960938 393.996094 154.09375 393.257812 154.972656 C 391.398438 157.171875 386.523438 157.613281 381.597656 157.652344 C 381.824219 155.257812 382.132812 152.898438 382.539062 150.585938 Z M 400.035156 238.894531 C 400.035156 235.820312 397.546875 233.332031 394.476562 233.332031 C 397.546875 233.332031 400.035156 230.839844 400.035156 227.765625 C 400.035156 224.699219 397.546875 222.207031 394.476562 222.207031 L 384.144531 222.207031 C 384.101562 213.917969 383.363281 205.058594 382.648438 196.484375 C 381.605469 184.058594 380.539062 171.300781 381.453125 159.351562 C 386.929688 159.324219 392.222656 158.824219 394.554688 156.066406 C 395.628906 154.792969 395.984375 153.148438 395.617188 151.203125 C 394.671875 145.535156 390.894531 143.632812 387.886719 143.707031 C 384.742188 143.796875 381.320312 146.125 380.863281 150.347656 C 380.4375 152.738281 380.121094 155.175781 379.894531 157.648438 C 378.9375 157.640625 377.988281 157.625 377.078125 157.609375 C 375.894531 157.585938 374.746094 157.566406 373.671875 157.566406 C 372.226562 157.566406 369.949219 157.566406 367.390625 157.421875 C 366.871094 154.464844 366.050781 151.742188 364.78125 149.507812 L 364.738281 149.4375 C 361.988281 145.5625 355.871094 143.453125 352.148438 145.097656 C 349.878906 146.101562 348.941406 148.339844 349.574219 151.238281 C 350.746094 156.597656 358.222656 158.425781 365.925781 159.007812 C 366.804688 165.246094 366.4375 172.488281 366.144531 178.320312 C 366.050781 180.117188 365.96875 181.789062 365.925781 183.285156 C 365.765625 188.898438 365.171875 194.421875 364.542969 200.269531 C 363.816406 207.046875 363.070312 214.058594 362.851562 222.207031 L 348.496094 222.207031 C 345.421875 222.207031 342.929688 224.699219 342.929688 227.765625 C 342.929688 230.839844 345.421875 233.332031 348.496094 233.332031 C 345.421875 233.332031 342.929688 235.820312 342.929688 238.894531 C 342.929688 241.964844 345.421875 244.453125 348.496094 244.453125 C 345.421875 244.453125 342.929688 246.941406 342.929688 250.015625 C 342.929688 253.089844 345.421875 255.578125 348.496094 255.578125 L 357.320312 255.578125 L 357.320312 260.074219 C 357.320312 263.144531 361.003906 265.636719 365.550781 265.636719 L 377.417969 265.636719 C 381.960938 265.636719 385.644531 263.144531 385.644531 260.074219 L 385.644531 255.578125 L 394.476562 255.578125 C 397.546875 255.578125 400.035156 253.089844 400.035156 250.015625 C 400.035156 246.941406 397.546875 244.453125 394.476562 244.453125 C 397.546875 244.453125 400.035156 241.964844 400.035156 238.894531 "/>
<path style=" stroke:none;fill-rule:nonzero;fill:rgb(97.737122%,90.058899%,56.781006%);fill-opacity:1;" d="M 334.75 129.75 C 334.75 129.75 339.105469 115.859375 359.085938 109.167969 L 361.253906 112.925781 C 361.253906 112.925781 344.996094 117.355469 338.621094 132.878906 L 334.75 129.75 "/>
<path style=" stroke:none;fill-rule:nonzero;fill:rgb(97.737122%,90.058899%,56.781006%);fill-opacity:1;" d="M 337.351562 136.347656 L 333.332031 133.539062 C 333.332031 133.539062 331.9375 138.0625 331.9375 142.125 L 336.75 144 C 336.75 144 336.25 140.4375 337.351562 136.347656 "/>
<path style=" stroke:none;fill-rule:nonzero;fill:rgb(8.285522%,8.345032%,7.719421%);fill-opacity:1;" d="M 320.496094 64.527344 L 326.375 61.5625 L 342.445312 96.859375 L 341.054688 97.878906 L 320.496094 64.527344 "/>
<path style=" stroke:none;fill-rule:nonzero;fill:rgb(8.285522%,8.345032%,7.719421%);fill-opacity:1;" d="M 280.746094 103.921875 L 284.351562 98.417969 L 315.917969 120.949219 L 315.222656 122.527344 L 280.746094 103.921875 "/>
<path style=" stroke:none;fill-rule:nonzero;fill:rgb(8.285522%,8.345032%,7.719421%);fill-opacity:1;" d="M 266.015625 157.914062 L 266.390625 151.34375 L 304.988281 155.074219 L 305.179688 156.789062 L 266.015625 157.914062 "/>
<path style=" stroke:none;fill-rule:nonzero;fill:rgb(8.285522%,8.345032%,7.719421%);fill-opacity:1;" d="M 482.25 158.890625 L 481.878906 165.460938 L 443.273438 161.730469 L 443.085938 160.015625 L 482.25 158.890625 "/>
<path style=" stroke:none;fill-rule:nonzero;fill:rgb(8.285522%,8.345032%,7.719421%);fill-opacity:1;" d="M 468.007812 104.765625 L 470.972656 110.644531 L 435.675781 126.714844 L 434.652344 125.320312 L 468.007812 104.765625 "/>
<path style=" stroke:none;fill-rule:nonzero;fill:rgb(8.285522%,8.345032%,7.719421%);fill-opacity:1;" d="M 428.613281 65.015625 L 434.117188 68.621094 L 411.585938 100.1875 L 410.007812 99.492188 L 428.613281 65.015625 "/>
<path style=" stroke:none;fill-rule:nonzero;fill:rgb(8.285522%,8.345032%,7.719421%);fill-opacity:1;" d="M 374.621094 50.285156 L 381.191406 50.65625 L 377.460938 89.261719 L 375.746094 89.449219 L 374.621094 50.285156 "/>
<path style=" stroke:none;fill-rule:nonzero;fill:rgb(8.285522%,8.345032%,7.719421%);fill-opacity:1;" d="M 209.046875 219.972656 L 211.90625 218.53125 L 219.722656 235.699219 L 219.046875 236.199219 L 209.046875 219.972656 "/>
<path style=" stroke:none;fill-rule:nonzero;fill:rgb(8.285522%,8.345032%,7.719421%);fill-opacity:1;" d="M 182.542969 265.402344 L 182.726562 262.207031 L 201.503906 264.019531 L 201.59375 264.855469 L 182.542969 265.402344 "/>
<path style=" stroke:none;fill-rule:nonzero;fill:rgb(8.285522%,8.345032%,7.719421%);fill-opacity:1;" d="M 287.730469 265.875 L 287.550781 269.070312 L 268.773438 267.257812 L 268.679688 266.421875 L 287.730469 265.875 "/>
<path style=" stroke:none;fill-rule:nonzero;fill:rgb(8.285522%,8.345032%,7.719421%);fill-opacity:1;" d="M 261.640625 220.210938 L 264.316406 221.964844 L 253.355469 237.320312 L 252.589844 236.980469 L 261.640625 220.210938 "/>
<path style=" stroke:none;fill-rule:nonzero;fill:rgb(96.855164%,82.458496%,29.022217%);fill-opacity:1;" d="M 233.886719 238.785156 C 233.875 238.785156 233.863281 238.785156 233.851562 238.785156 C 233.835938 238.785156 233.824219 238.785156 233.8125 238.785156 C 220.964844 238.828125 210.570312 249.25 210.570312 262.101562 C 210.570312 266.347656 211.703125 270.328125 213.683594 273.757812 C 213.683594 273.757812 221.464844 286.148438 221.578125 290.925781 C 221.960938 297.347656 223.71875 300.101562 223.71875 300.101562 L 243.980469 300.101562 C 243.980469 300.101562 245.738281 297.347656 246.117188 290.925781 C 246.234375 286.148438 254.011719 273.757812 254.011719 273.757812 C 255.992188 270.328125 257.128906 266.347656 257.128906 262.101562 C 257.128906 249.25 246.730469 238.828125 233.886719 238.785156 "/>
<path style=" stroke:none;fill-rule:nonzero;fill:rgb(8.285522%,8.345032%,7.719421%);fill-opacity:1;" d="M 230.828125 296.675781 C 231.570312 289.261719 231.578125 283.664062 231.574219 277.722656 C 231.46875 276.519531 231.445312 275.054688 231.421875 273.503906 C 231.382812 271.027344 231.34375 268.359375 230.976562 265.949219 C 233.179688 266.066406 235.269531 266.046875 236.960938 265.902344 C 236.488281 271.804688 237.015625 278.101562 237.53125 284.230469 C 237.882812 288.386719 238.234375 292.675781 238.253906 296.675781 Z M 222.957031 261.992188 C 222.667969 260.542969 223.070312 259.5 224.070312 259.132812 C 224.324219 259.039062 224.613281 258.992188 224.917969 258.992188 C 226.246094 258.992188 227.914062 259.886719 228.917969 261.695312 C 229.457031 262.675781 229.824219 263.855469 230.078125 265.144531 C 226.976562 264.902344 223.394531 264.171875 222.957031 261.992188 Z M 238.226562 261.832031 C 238.4375 259.925781 239.820312 258.609375 240.984375 258.574219 C 241 258.574219 241.015625 258.574219 241.03125 258.574219 C 242 258.574219 242.703125 259.464844 242.964844 261.035156 C 243.132812 261.921875 242.976562 262.640625 242.484375 263.234375 C 241.722656 264.152344 240.148438 264.765625 237.789062 265.0625 C 237.894531 263.96875 238.039062 262.890625 238.226562 261.832031 Z M 247.738281 304.792969 C 247.738281 303.300781 246.527344 302.089844 245.03125 302.089844 C 246.527344 302.089844 247.738281 300.878906 247.738281 299.382812 C 247.738281 297.890625 246.527344 296.675781 245.03125 296.675781 L 239.003906 296.675781 C 238.984375 292.644531 238.628906 288.339844 238.277344 284.164062 C 237.765625 278.027344 237.234375 271.71875 237.71875 265.824219 C 240.390625 265.511719 242.152344 264.8125 243.0625 263.714844 C 243.695312 262.945312 243.910156 262 243.703125 260.902344 C 243.375 258.9375 242.367188 257.753906 240.964844 257.824219 C 239.273438 257.871094 237.714844 259.632812 237.484375 261.726562 C 237.285156 262.847656 237.136719 263.984375 237.023438 265.144531 C 236.101562 265.226562 235.074219 265.269531 233.941406 265.269531 C 233.226562 265.269531 232.109375 265.269531 230.851562 265.199219 C 230.582031 263.761719 230.183594 262.4375 229.574219 261.335938 C 228.148438 258.757812 225.472656 257.820312 223.8125 258.429688 C 222.449219 258.929688 221.855469 260.316406 222.222656 262.140625 C 222.746094 264.746094 226.425781 265.625 230.210938 265.902344 C 230.589844 268.300781 230.632812 271.007812 230.671875 273.515625 C 230.695312 275.082031 230.71875 276.5625 230.828125 277.753906 C 230.828125 283.664062 230.824219 289.261719 230.074219 296.675781 L 222.667969 296.675781 C 221.171875 296.675781 219.957031 297.890625 219.957031 299.382812 C 219.957031 300.878906 221.171875 302.089844 222.667969 302.089844 C 221.171875 302.089844 219.957031 303.300781 219.957031 304.792969 C 219.957031 306.289062 221.171875 307.5 222.667969 307.5 C 221.171875 307.5 219.957031 308.710938 219.957031 310.203125 C 219.957031 311.699219 221.171875 312.910156 222.667969 312.910156 L 226.960938 312.910156 L 226.960938 315.097656 C 226.960938 316.59375 228.75 317.800781 230.964844 317.800781 L 236.734375 317.800781 C 238.945312 317.800781 240.738281 316.59375 240.738281 315.097656 L 240.738281 312.910156 L 245.03125 312.910156 C 246.527344 312.910156 247.738281 311.699219 247.738281 310.203125 C 247.738281 308.710938 246.527344 307.5 245.03125 307.5 C 246.527344 307.5 247.738281 306.289062 247.738281 304.792969 "/>
<path style=" stroke:none;fill-rule:nonzero;fill:rgb(97.737122%,90.058899%,56.781006%);fill-opacity:1;" d="M 240.40625 242.617188 C 240.40625 242.617188 248.042969 244.09375 251.898438 251.738281 L 250.347656 252.785156 C 250.347656 252.785156 246.722656 246.058594 239.898438 244.953125 L 240.40625 242.617188 "/>
<path style=" stroke:none;fill-rule:nonzero;fill:rgb(97.737122%,90.058899%,56.781006%);fill-opacity:1;" d="M 250.917969 254.082031 L 252.582031 253.375 C 252.582031 253.375 253.167969 254.625 253.125 255.292969 L 251.332031 255.625 C 251.332031 255.625 251.292969 255 250.917969 254.082031 "/>
</g>
</svg>
