<svg xmlns:rdf="http://www.w3.org/1999/02/22-rdf-syntax-ns#" xmlns="http://www.w3.org/2000/svg" height="1639.9764" width="1548.0231" version="1.1" xmlns:cc="http://creativecommons.org/ns#" xmlns:dc="http://purl.org/dc/elements/1.1/" viewBox="0 0 1548.0222 1639.9764">
<g transform="translate(100.00049,487.62142)">
<g transform="matrix(18.7469,0,0,18.7469,-86.0863,-18391.1)">
<g fill-rule="evenodd">
<path d="m39.2754 960.355c-8.61906 0.2488-17.0641 4.7447-22.0059 15.7734-0.44828 2.54684 0.0092 4.7909 0.01758 7.18554 0.414024 1.16956 1.27894 2.48709 2.1582 3.19141 0.05509 2.0372-0.227416 4.22727 0.257813 6.12109 1.39788 3.76184 4.13919 4.68157 7.01172 6.96875-0.714874 8.76561 6.7464 13.64191 14.2852 13.76561 7.53876-0.1237 15-5 14.2852-13.76561 2.87253-2.28718 5.61384-3.20691 7.01172-6.96875 0.485229-1.89382 0.202723-4.08389 0.257813-6.12109 0.879259-0.70432 1.74418-2.02185 2.1582-3.19141 0.0083-2.39464 0.465858-4.6387 0.01758-7.18554-5.2712-11.763-14.5279-16.094-23.7305-15.767-0.575162-0.0205-1.15-0.0224-1.72461-0.006z"/>
<path d="m8.21922 1012.79c-2.43061-3.8017-1.68328-6.5961 0.65068-6.806 1.16698-0.105 3.321-0.6709 4.41821 0.3813s1.13759 3.7226 0.438836 5.6621l53.8909 14.5743c5.44988-5.4823 14.1988 2.9736 4.57565 5.5077 1.39003 1.0874 2.39936 2.2951 0.106607 4.5455-1.88431 0.9264-4.28084 0.316-6.53004 0.1476-1.65551-1.3949-1.14199-2.7898-0.270564-4.1847l-53.2131-15.93c-1.66957 6.3664-13.5343 0.3268-4.06724-3.8978z"/>
<path d="m72.8712 1012.79c2.43061-3.8017 1.68328-6.5961-0.65068-6.806-1.16698-0.105-3.321-0.6709-4.41821 0.3813s-1.13759 3.7226-0.438836 5.6621l-53.8909 14.5743c-5.44987-5.4823-14.1988 2.9736-4.57565 5.5077-1.39003 1.0874-2.39936 2.2951-0.106607 4.5455 1.88431 0.9264 4.28084 0.316 6.53004 0.1476 1.65551-1.3949 1.14199-2.7898 0.270564-4.1847l53.2131-15.93c1.66957 6.3664 13.5343 0.3268 4.06724-3.8978z"/>
</g>
<g fill="#fff">
<ellipse style="color:#000000" rx="7.7733402" transform="matrix(.877168 -.480184 .39232 .919829 0 0)" ry="5.5254402" cy="885.58698" cx="-359.17099"/>
<ellipse style="color:#000000" rx="7.7733402" ry="5.5254402" transform="matrix(-.877168 -.480184 -.39232 .919829 0 0)" cy="845.73901" cx="-435.50299"/>
<rect style="color:#000000" rx=".0266711" ry=".0266711" height="5" width="2" y="1002.36" x="34"/>
<rect style="color:#000000" rx=".0266711" ry=".0266711" height="6.58322" width="1.84645" y="1002.59" x="37.510601"/>
<rect style="color:#000000" rx=".0266711" ry=".0266711" height="6.9274001" width="1.65583" y="1002.5" x="41.090099"/>
<rect style="color:#000000" rx=".0266711" ry=".0266711" height="6.2390399" width="1.65583" y="1002.32" x="44.701302"/>
<rect style="color:#000000" rx=".0266711" ry=".0266711" height="3.8297901" width="1.72466" y="1002.29" x="48.455502"/>
<rect style="color:#000000" rx=".0266711" ry=".0266711" height="2.59075" width="1.74388" y="1001.05" x="51.465099"/>
<path style="color:#000000" d="m32.1959 1002.78s0.5 0.223 0.5 0.5v2.8298c0 0.277-0.223 0.5-0.5 0.5-1.82974-0.046-2.9676-3.0895-3.63391-4.4236 0.01675-0.5985 0.464875-0.8984 0.688358-0.7648 1.12937 0.4481 2.94555 1.3586 2.94555 1.3586z"/>
<path style="color:#000000" d="m39.8195 992.428h2.69002c0.554 0 1.04162 0.44757 1 1l-0.399985 5.30876c-0.04162 0.55243-0.446 1-1 1h-1.89c-0.554 0-0.958372-0.44757-1-1l-0.400038-5.30876c-0.04163-0.55243 0.446-1 1-1z"/>
</g>
</g>
</g>
</svg>
