<?xml version="1.0" ?><svg height="512" id="svg2" version="1.1" width="512" xmlns="http://www.w3.org/2000/svg" xmlns:cc="http://creativecommons.org/ns#" xmlns:dc="http://purl.org/dc/elements/1.1/" xmlns:inkscape="http://www.inkscape.org/namespaces/inkscape" xmlns:rdf="http://www.w3.org/1999/02/22-rdf-syntax-ns#" xmlns:sodipodi="http://sodipodi.sourceforge.net/DTD/sodipodi-0.dtd" xmlns:svg="http://www.w3.org/2000/svg"><defs id="defs4"/><g id="layer1" transform="translate(0,-540.36218)"><g id="g4305"><g id="g4345" transform="translate(28,-40.00001)"><path d="M 84 40 L 84 88 L 404 88 L 404 40 L 84 40 z M 84 136 L 84 184 L 484 184 L 484 136 L 84 136 z M 84 232 L 84 280 L 308 280 L 308 232 L 84 232 z M 84 328 L 84 376 L 244 376 L 244 328 L 84 328 z M 84 424 L 84 472 L 356 472 L 356 424 L 84 424 z " id="rect2985" style="color:#000000;fill:#222222;fill-opacity:1;fill-rule:nonzero;stroke:none;stroke-width:20;marker:none;visibility:visible;display:inline;overflow:visible;enable-background:accumulate" transform="translate(-28,580.36219)"/><path d="m 0,596.36218 0,480.00002 24,0 0,-480.00002 z" id="rect2985-1" style="color:#000000;fill:#2980b9;fill-opacity:1;fill-rule:nonzero;stroke:none;stroke-width:20;marker:none;visibility:visible;display:inline;overflow:visible;enable-background:accumulate"/></g></g></g></svg>