<?xml version="1.0" encoding="UTF-8"?>
<svg xmlns="http://www.w3.org/2000/svg" xmlns:xlink="http://www.w3.org/1999/xlink" viewBox="0 0 600 600" version="1.1">
<g id="surface1">
<rect x="0" y="0" width="600" height="600" style="fill:rgb(61.671448%,84.638977%,81.721497%);fill-opacity:1;stroke:none;"/>
<path style=" stroke:none;fill-rule:nonzero;fill:rgb(44.206238%,61.735535%,60.980225%);fill-opacity:1;" d="M 271.257812 506.628906 C 271.257812 510.8125 230.269531 514.207031 179.703125 514.207031 C 129.140625 514.207031 88.152344 510.8125 88.152344 506.628906 C 88.152344 502.441406 129.140625 499.050781 179.703125 499.050781 C 230.269531 499.050781 271.257812 502.441406 271.257812 506.628906 "/>
<path style=" stroke:none;fill-rule:nonzero;fill:rgb(44.206238%,61.735535%,60.980225%);fill-opacity:1;" d="M 536.105469 507.988281 C 536.105469 512.171875 495.113281 515.5625 444.550781 515.5625 C 393.988281 515.5625 352.996094 512.171875 352.996094 507.988281 C 352.996094 503.800781 393.988281 500.40625 444.550781 500.40625 C 495.113281 500.40625 536.105469 503.800781 536.105469 507.988281 "/>
<path style=" stroke:none;fill-rule:nonzero;fill:rgb(44.206238%,61.735535%,60.980225%);fill-opacity:1;" d="M 327.796875 505.0625 C 327.796875 507.21875 318.296875 508.964844 306.582031 508.964844 C 294.863281 508.964844 285.367188 507.21875 285.367188 505.0625 C 285.367188 502.90625 294.863281 501.160156 306.582031 501.160156 C 318.296875 501.160156 327.796875 502.90625 327.796875 505.0625 "/>
<path style=" stroke:none;fill-rule:nonzero;fill:rgb(10.61554%,23.606873%,35.322571%);fill-opacity:1;" d="M 299.859375 505.0625 L 313.304688 505.0625 L 313.304688 109.605469 L 299.859375 109.605469 Z M 299.859375 505.0625 "/>
<path style=" stroke:none;fill-rule:nonzero;fill:rgb(94.888306%,37.249756%,32.183838%);fill-opacity:1;" d="M 299.859375 231.617188 L 166.859375 240.367188 L 137.886719 213.207031 L 167.160156 186.042969 L 299.859375 195.398438 L 299.859375 231.617188 "/>
<path style=" stroke:none;fill-rule:nonzero;fill:rgb(94.888306%,37.249756%,32.183838%);fill-opacity:1;" d="M 313.304688 181.007812 L 446.304688 189.757812 L 475.277344 162.597656 L 446.003906 135.433594 L 313.304688 144.789062 L 313.304688 181.007812 "/>
<path style=" stroke:none;fill-rule:nonzero;fill:rgb(99.008179%,85.456848%,60.580444%);fill-opacity:1;" d="M 393.222656 397.90625 C 393.222656 397.90625 366.703125 333.898438 426.507812 320.730469 C 426.507812 320.730469 506.058594 288.6875 506.058594 383.164062 L 393.222656 397.90625 "/>
<path style=" stroke:none;fill-rule:nonzero;fill:rgb(8.285522%,8.345032%,7.719421%);fill-opacity:1;" d="M 489.003906 314.921875 C 489.003906 314.921875 489.003906 314.917969 489.007812 314.917969 C 493.070312 308.046875 496.117188 297.492188 493.503906 294.988281 C 488.6875 290.371094 483.960938 300.429688 478.730469 305.480469 L 478.726562 305.480469 C 478.511719 305.324219 478.300781 305.171875 478.089844 305.019531 C 478.882812 304.007812 479.648438 302.898438 480.359375 301.695312 C 484.425781 294.824219 485.128906 287.859375 482.070312 285.914062 C 475.875 281.960938 472.5 293.800781 465.644531 298.054688 C 413.707031 292.566406 382.25 330.972656 382.25 330.972656 C 355.183594 356.574219 393.222656 397.90625 393.222656 397.90625 C 395.820312 396.132812 398.6875 390.394531 401.375 383.433594 C 400.65625 383.253906 399.9375 382.960938 399.253906 382.539062 C 396.332031 380.734375 395.125 377.390625 396.558594 375.070312 C 397.988281 372.75 401.519531 372.332031 404.441406 374.136719 C 404.507812 374.175781 404.558594 374.226562 404.621094 374.269531 C 408.761719 361.683594 411.878906 348.894531 411.878906 348.894531 C 433.933594 347.226562 475.882812 324.625 475.882812 324.625 C 485.394531 326.324219 500.898438 347.710938 500.898438 347.710938 C 501.125 333.425781 495.675781 322.695312 489.003906 314.921875 "/>
<path style=" stroke:none;fill-rule:nonzero;fill:rgb(12.866211%,11.170959%,11.180115%);fill-opacity:1;" d="M 429.734375 367.59375 C 428.414062 367.59375 426.886719 367.386719 425.152344 366.96875 L 425.664062 364.835938 C 429.496094 365.757812 432.042969 365.570312 433.027344 364.296875 C 434.417969 362.503906 432.84375 358.578125 432.121094 357.214844 L 434.058594 356.183594 C 434.394531 356.8125 437.261719 362.410156 434.765625 365.640625 C 433.757812 366.941406 432.074219 367.59375 429.734375 367.59375 "/>
<path style=" stroke:none;fill-rule:nonzero;fill:rgb(12.866211%,11.170959%,11.180115%);fill-opacity:1;" d="M 471.191406 353.566406 C 471.097656 353.566406 471.003906 353.566406 470.90625 353.558594 C 466.847656 353.355469 464.082031 348.730469 463.964844 348.535156 L 465.855469 347.421875 C 465.878906 347.460938 468.144531 351.230469 471.023438 351.367188 C 472.542969 351.4375 474.0625 350.453125 475.546875 348.429688 L 477.316406 349.726562 C 475.445312 352.277344 473.386719 353.566406 471.191406 353.566406 "/>
<path style=" stroke:none;fill-rule:nonzero;fill:rgb(12.866211%,11.170959%,11.180115%);fill-opacity:1;" d="M 445.253906 376.628906 L 445.003906 376.128906 C 443.964844 374.050781 445.945312 370.796875 446.03125 370.660156 L 446.964844 371.234375 C 446.535156 371.929688 445.621094 373.8125 445.824219 375.121094 C 448.019531 374.144531 455.921875 371.203125 463.679688 375.402344 L 463.15625 376.367188 C 454.730469 371.804688 445.835938 376.324219 445.746094 376.371094 L 445.253906 376.628906 "/>
<path style=" stroke:none;fill-rule:nonzero;fill:rgb(99.008179%,85.456848%,60.580444%);fill-opacity:1;" d="M 570.808594 366.980469 C 569.371094 362.898438 551.859375 368.324219 551.859375 368.324219 L 551.859375 368.328125 C 545.507812 369.023438 539.742188 371.65625 539.742188 371.65625 C 539.742188 371.65625 546.460938 379.015625 546.21875 396.691406 C 571.328125 390.453125 567.492188 376.65625 567.492188 376.65625 C 566.8125 374.375 565.726562 372.667969 564.378906 371.394531 C 571.898438 368.941406 570.808594 366.980469 570.808594 366.980469 "/>
<path style=" stroke:none;fill-rule:nonzero;fill:rgb(99.008179%,85.456848%,60.580444%);fill-opacity:1;" d="M 390.148438 446.457031 C 390.148438 446.457031 396.273438 455.960938 393.222656 463.101562 C 393.222656 463.101562 382.890625 475.71875 374.386719 473.523438 C 374.386719 473.523438 365.609375 469.960938 371.09375 464.746094 L 366.703125 458.710938 L 390.148438 446.457031 "/>
<path style=" stroke:none;fill-rule:nonzero;fill:rgb(98.683167%,97.042847%,85.784912%);fill-opacity:1;" d="M 546.21875 396.691406 C 546.460938 379.015625 539.742188 371.65625 539.742188 371.65625 C 532.550781 372.480469 511.820312 380.792969 506.015625 383.164062 C 446.960938 383.0625 393.222656 397.90625 393.222656 397.90625 C 393.222656 397.90625 358.691406 414.71875 357.046875 428.34375 C 357.046875 428.34375 352.996094 444.347656 366.703125 458.710938 L 390.148438 446.457031 L 384.261719 435.394531 C 384.261719 435.394531 389.617188 432.660156 394.117188 430.164062 C 393.886719 448.523438 393.222656 467.765625 393.222656 467.765625 L 386.457031 503.152344 C 386.457031 503.152344 394.136719 512.753906 427.878906 508.636719 C 427.878906 508.636719 433.6875 490.046875 435.054688 478.25 C 443.789062 478.984375 451.992188 478.824219 459.445312 478.144531 C 460.792969 489.9375 466.636719 508.636719 466.636719 508.636719 C 490.148438 514.671875 504.988281 505.394531 504.988281 505.394531 L 501.292969 467.765625 L 501.070312 467.148438 C 505.714844 450.421875 507.34375 432.960938 507.664062 418.316406 L 546.21875 396.691406 "/>
<path style=" stroke:none;fill-rule:nonzero;fill:rgb(94.888306%,37.249756%,32.183838%);fill-opacity:1;" d="M 485.761719 431.828125 L 490.695312 418.386719 C 490.695312 418.386719 478.707031 392.335938 467.144531 385.0625 C 463.660156 385.394531 460.242188 385.757812 456.90625 386.148438 C 456.90625 386.148438 470.121094 400.007812 470.671875 426.066406 L 485.761719 431.828125 "/>
<path style=" stroke:none;fill-rule:nonzero;fill:rgb(99.008179%,85.456848%,60.580444%);fill-opacity:1;" d="M 100.585938 378.511719 C 100.585938 378.511719 100.585938 295.117188 195.683594 320.722656 C 195.683594 320.722656 270.664062 337.910156 223.480469 397.894531 C 223.480469 397.894531 111.558594 376.316406 100.585938 378.511719 "/>
<path style=" stroke:none;fill-rule:nonzero;fill:rgb(8.285522%,8.345032%,7.719421%);fill-opacity:1;" d="M 195.683594 320.722656 C 154.722656 309.691406 131.414062 318.894531 118.140625 332.933594 C 123.722656 329.414062 129.5625 326.75 133.871094 327.304688 C 133.871094 327.304688 179.953125 346.691406 216.164062 346.691406 C 216.164062 346.691406 215.835938 361.308594 218.3125 374.835938 C 218.402344 374.800781 218.496094 374.765625 218.59375 374.730469 C 222.128906 373.601562 225.703125 374.902344 226.582031 377.644531 C 227.460938 380.382812 225.308594 383.527344 221.773438 384.660156 C 221.472656 384.757812 221.171875 384.828125 220.867188 384.890625 C 222.21875 388.761719 223.945312 392.097656 226.167969 394.328125 C 267.652344 337.230469 195.683594 320.722656 195.683594 320.722656 "/>
<path style=" stroke:none;fill-rule:nonzero;fill:rgb(98.683167%,97.042847%,85.784912%);fill-opacity:1;" d="M 231.894531 461.722656 L 229.195312 441.25 L 227.742188 430.234375 L 239.050781 431.546875 L 229.195312 441.25 C 234.726562 441.902344 252.191406 450.472656 252.191406 450.472656 C 262.617188 440.324219 264.535156 424.917969 264.535156 424.917969 C 264.261719 402.925781 223.480469 397.894531 223.480469 397.894531 C 223.480469 397.894531 120.703125 375.402344 100.585938 378.511719 L 68.949219 348.699219 C 68.949219 348.699219 47.824219 356.433594 43.4375 378.21875 L 95.921875 415.769531 C 95.433594 431.585938 96.882812 449.933594 103.511719 465.5625 C 103.511719 465.5625 119.238281 502.867188 123.628906 506.160156 C 123.628906 506.160156 138.988281 511.644531 158.375 503.601562 C 158.375 503.601562 153.972656 481.578125 151.144531 471.027344 C 163.089844 471.714844 176.136719 471.90625 188.855469 471.023438 C 197.003906 480.066406 211.925781 503.144531 219.6875 505.0625 C 226.34375 506.710938 239.300781 506.628906 249.585938 501.769531 C 251.140625 501.035156 241.796875 475.882812 231.894531 461.722656 "/>
<path style=" stroke:none;fill-rule:nonzero;fill:rgb(99.008179%,85.456848%,60.580444%);fill-opacity:1;" d="M 68.949219 348.699219 C 68.949219 348.699219 41.152344 329.316406 36.214844 329.867188 C 36.214844 329.867188 33.105469 329.5 31.277344 332.242188 C 31.277344 332.242188 29.628906 334.4375 32.921875 337.910156 L 38.589844 342.484375 C 38.589844 342.484375 14.96875 357.847656 43.4375 378.21875 C 47.824219 356.433594 68.949219 348.699219 68.949219 348.699219 "/>
<path style=" stroke:none;fill-rule:nonzero;fill:rgb(99.008179%,85.456848%,60.580444%);fill-opacity:1;" d="M 231.695312 460.210938 C 231.695312 460.210938 244.878906 464.644531 252.191406 450.472656 C 252.191406 450.472656 234.726562 441.902344 229.195312 441.25 C 229.195312 441.25 218.511719 453.949219 231.695312 460.210938 "/>
<path style=" stroke:none;fill-rule:nonzero;fill:rgb(12.866211%,11.170959%,11.180115%);fill-opacity:1;" d="M 134.90625 358.074219 C 133.496094 358.074219 132.257812 357.734375 131.203125 357.054688 C 127.445312 354.632812 127.644531 348.898438 127.652344 348.65625 L 129.847656 348.746094 C 129.84375 348.792969 129.695312 353.480469 132.398438 355.210938 C 134.234375 356.394531 137.085938 356.019531 140.871094 354.105469 L 141.863281 356.0625 C 139.214844 357.402344 136.886719 358.074219 134.90625 358.074219 "/>
<path style=" stroke:none;fill-rule:nonzero;fill:rgb(12.866211%,11.170959%,11.180115%);fill-opacity:1;" d="M 175.984375 366.238281 C 174.574219 366.238281 173.339844 365.898438 172.285156 365.21875 C 168.527344 362.796875 168.722656 357.0625 168.734375 356.820312 L 170.925781 356.910156 C 170.925781 356.957031 170.777344 361.644531 173.476562 363.378906 C 175.316406 364.558594 178.167969 364.183594 181.953125 362.269531 L 182.945312 364.230469 C 180.292969 365.566406 177.96875 366.238281 175.984375 366.238281 "/>
<path style=" stroke:none;fill-rule:nonzero;fill:rgb(12.866211%,11.170959%,11.180115%);fill-opacity:1;" d="M 157.730469 374.78125 C 151.207031 368.777344 141.675781 372.648438 141.578125 372.6875 L 141.15625 371.675781 C 141.257812 371.632812 151.4375 367.503906 158.472656 373.972656 L 157.730469 374.78125 "/>
<path style=" stroke:none;fill-rule:nonzero;fill:rgb(94.888306%,37.249756%,32.183838%);fill-opacity:1;" d="M 140.003906 381.9375 C 135.667969 388.34375 122.585938 409.117188 124.726562 423.5 L 135.058594 436.664062 L 147.769531 424.230469 C 147.769531 424.230469 142.007812 391.773438 148.585938 383.324219 C 145.679688 382.839844 142.8125 382.375 140.003906 381.9375 "/>
<path style=" stroke:none;fill-rule:nonzero;fill:rgb(12.866211%,11.170959%,11.180115%);fill-opacity:1;" d="M 160.550781 378.640625 L 159.859375 377.789062 C 161.542969 376.414062 160.316406 372.484375 159.703125 371.085938 L 160.707031 370.644531 C 160.8125 370.882812 163.222656 376.460938 160.550781 378.640625 "/>
<path style=" stroke:none;fill-rule:nonzero;fill:rgb(8.285522%,8.345032%,7.719421%);fill-opacity:1;" d="M 549.785156 362.300781 L 549.214844 361.476562 C 549.570312 361.230469 558.023438 355.480469 566.664062 358.527344 L 566.335938 359.472656 C 558.167969 356.589844 549.867188 362.242188 549.785156 362.300781 "/>
<path style=" stroke:none;fill-rule:nonzero;fill:rgb(8.285522%,8.345032%,7.719421%);fill-opacity:1;" d="M 549.777344 356.597656 L 549.21875 355.769531 C 549.453125 355.613281 554.964844 351.949219 561.417969 353.074219 L 561.246094 354.058594 C 555.195312 353.007812 549.832031 356.5625 549.777344 356.597656 "/>
<path style=" stroke:none;fill-rule:nonzero;fill:rgb(8.285522%,8.345032%,7.719421%);fill-opacity:1;" d="M 60.355469 335.726562 C 55.507812 331.847656 49.121094 330.351562 49.058594 330.335938 L 49.28125 329.363281 C 49.550781 329.425781 55.949219 330.917969 60.980469 334.941406 L 60.355469 335.726562 "/>
<path style=" stroke:none;fill-rule:nonzero;fill:rgb(8.285522%,8.345032%,7.719421%);fill-opacity:1;" d="M 66.613281 332.910156 C 64.777344 330.695312 60.667969 330.351562 60.628906 330.347656 L 60.707031 329.351562 C 60.890625 329.363281 65.273438 329.730469 67.386719 332.273438 L 66.613281 332.910156 "/>
</g>
</svg>
